<svg width="118" height="36" viewBox="0 0 118 36" fill="none" xmlns="http://www.w3.org/2000/svg">
<path fill-rule="evenodd" clip-rule="evenodd" d="M22.4941 0.0542817C26.1128 0.454968 29.3481 2.14718 31.7046 4.87176C35.7781 9.58136 36.2919 16.4437 32.9644 21.696C32.4426 22.5194 31.5465 23.6414 31.0388 24.1069C30.7706 24.3527 30.3912 24.9432 30.2903 25.2716C29.9907 26.2475 30.4649 27.3334 31.3815 27.7704C32.7727 28.4337 34.3743 27.4259 34.3743 25.8873C34.3743 25.5297 34.3109 25.2797 34.1138 24.8598C33.9739 24.5618 33.9635 24.5149 33.9642 24.1852C33.9647 23.8927 33.9804 23.8014 34.0541 23.6626C34.2948 23.2087 34.7048 22.9495 35.1819 22.9495C35.5535 22.9495 35.7849 23.0351 36.0387 23.2669C36.5722 23.754 36.9621 24.9997 36.9129 26.0603C36.8566 27.2723 36.4036 28.3202 35.5771 29.1497C34.6836 30.0464 33.5554 30.5113 32.2708 30.5121C31.0035 30.5129 29.8889 30.0413 28.9836 29.1213C28.0335 28.1556 27.591 26.9479 27.677 25.5544C27.7366 24.5881 28.1843 23.4912 28.7699 22.8771C28.8679 22.7742 28.991 22.6294 29.0433 22.5554C29.0956 22.4812 29.282 22.2688 29.4574 22.0832C32.1762 19.2074 33.2327 15.0912 32.2427 11.2322C31.1923 7.13819 27.9527 3.91006 23.8508 2.87013C21.8643 2.3665 19.7782 2.40289 17.7546 2.97644C14.4344 3.91754 11.6142 6.43702 10.2748 9.65892C9.83492 10.7169 9.5493 11.8727 9.43253 13.0672C9.36666 13.7413 9.40873 15.2337 9.51182 15.879C9.78245 17.5731 10.3695 19.0979 11.2988 20.5208C11.7051 21.1429 12.0212 21.529 13.1537 22.7865C13.752 23.4509 14.1289 24.2257 14.2827 25.1078C14.3764 25.6456 14.3421 26.5167 14.2067 27.0348C13.7497 28.7841 12.3914 30.0655 10.6032 30.4343C10.2584 30.5054 10.1122 30.5144 9.57393 30.4972C8.86659 30.4748 8.51384 30.4042 7.95574 30.1734C5.76602 29.2679 4.61159 26.8761 5.26513 24.599C5.40307 24.1184 5.70657 23.5142 5.91192 23.3113C6.16546 23.0609 6.37693 22.9725 6.76305 22.9555C7.06431 22.9423 7.10811 22.9506 7.33934 23.0643C8.02197 23.4 8.25352 24.1497 7.89367 24.8591C7.70714 25.2268 7.63296 25.5194 7.63296 25.8873C7.63296 26.4593 7.83772 26.9535 8.24536 27.3654C9.02061 28.1487 10.2958 28.1834 11.108 27.4434C11.5714 27.0212 11.7941 26.5228 11.7957 25.9047C11.7966 25.5006 11.7521 25.3009 11.5866 24.9671C11.4222 24.6355 11.2771 24.4466 10.8223 23.9723C8.83683 21.9013 7.59535 19.4822 7.0638 16.6485C6.86457 15.5863 6.79516 13.9531 6.90213 12.8432C7.19449 9.80911 8.35155 7.09957 10.3313 4.813C10.6808 4.40926 11.4244 3.67879 11.8487 3.32221C14.0584 1.46552 16.6652 0.357627 19.5729 0.0394752C20.1128 -0.0195956 21.9092 -0.0105081 22.4941 0.0542817ZM5.22615 18.1114C5.50232 18.2342 5.7281 18.4493 5.85699 18.7125C5.94776 18.8979 5.96556 18.9851 5.96596 19.2475C5.96678 19.7492 5.81472 20.0198 5.31046 20.4142C4.25829 21.2371 3.39721 22.4467 2.95012 23.7299C2.6469 24.6001 2.55604 25.1634 2.55788 26.1615C2.55969 27.1189 2.63537 27.6063 2.91012 28.4296C3.29969 29.5971 3.89472 30.5419 4.77553 31.3915C5.96756 32.5414 7.28676 33.1724 8.99889 33.4118C9.53511 33.4867 10.7267 33.4366 11.2992 33.315C13.5449 32.8382 15.3874 31.4227 16.4073 29.3908C16.864 28.4809 17.0992 27.5497 17.159 26.4151C17.1863 25.8967 17.2025 25.8002 17.2942 25.6065C17.4155 25.3502 17.6784 25.0926 17.9387 24.9747C18.2009 24.8561 18.6757 24.8586 18.9455 24.9801C19.2007 25.095 19.4865 25.3784 19.6001 25.6291C19.6831 25.8121 19.6902 25.8802 19.6868 26.4553C19.6753 28.4001 18.9643 30.4258 17.7031 32.1066C17.3367 32.595 16.5465 33.4071 16.0438 33.8118C14.2667 35.2427 12.1345 35.9936 9.84841 35.9936C7.68946 35.9936 5.68426 35.3269 3.95005 34.0326C1.28198 32.0413 -0.202215 28.8237 0.0222707 25.5175C0.16951 23.3493 0.939037 21.4349 2.32999 19.7766C2.85699 19.1482 3.76972 18.3216 4.15117 18.1272C4.48062 17.9593 4.87109 17.9536 5.22615 18.1114ZM37.8062 18.1103C38.2694 18.3175 39.3954 19.3798 39.9895 20.17C41.0546 21.5866 41.6694 23.07 41.9289 24.8493C42.0307 25.5475 42.022 26.8267 41.9106 27.5527C41.5912 29.6336 40.6957 31.4686 39.2753 32.9529C36.5612 35.789 32.4449 36.7451 28.7484 35.3981C27.8525 35.0716 26.7394 34.4413 25.9643 33.8215C25.5589 33.4973 24.8433 32.7774 24.4827 32.3311C23.4992 31.1136 22.8045 29.6416 22.4931 28.1152C22.3687 27.5052 22.2886 26.6958 22.3058 26.221C22.3193 25.8463 22.3353 25.7624 22.4274 25.585C22.568 25.314 22.7724 25.1161 23.0397 24.9922C23.3285 24.8583 23.7928 24.8495 24.0646 24.9726C24.386 25.1182 24.6466 25.4001 24.7653 25.7306C24.7923 25.806 24.83 26.1447 24.849 26.4832C24.908 27.5359 25.1219 28.3845 25.5581 29.2953C26.6232 31.5193 28.6848 33.0311 31.1403 33.3889C31.6656 33.4654 32.6571 33.4635 33.1879 33.3848C34.7478 33.1537 36.085 32.4978 37.2125 31.411C39.7543 28.9606 40.198 25.1181 38.2816 22.1524C37.8823 21.5345 37.2479 20.8468 36.6162 20.3474C36.1632 19.9893 35.9888 19.6316 36.0325 19.1505C36.1111 18.2844 37.0131 17.7554 37.8062 18.1103Z" fill="white"/>
<path fill-rule="evenodd" clip-rule="evenodd" d="M77.8304 8.00988L78.2775 8.32287V15.7672C78.2775 20.5142 78.2021 23.3526 78.0694 23.6008C77.7644 24.1705 76.7615 24.1178 76.364 23.5113C76.0916 23.0955 76.0581 22.0632 76.1079 15.65C76.1629 8.60991 76.1836 8.25407 76.5559 7.98212C77.0537 7.61824 77.2784 7.62307 77.8304 8.00988ZM57.716 12.8417C59.5909 13.776 60.5932 15.413 60.7343 17.7713C60.9002 20.551 59.7802 22.7622 57.6945 23.7718C56.0666 24.5599 53.6413 24.2278 52.2789 23.0301C51.946 22.7375 51.9269 22.8511 51.9269 25.1209C51.9269 26.9677 51.8547 27.624 51.6137 27.968C51.2687 28.4606 50.3557 28.5738 49.9556 28.1737C49.7766 27.9947 49.7143 26.0023 49.7143 20.454C49.7143 12.2966 49.6953 12.4267 50.8588 12.5601C51.2553 12.6055 51.517 12.8109 51.7356 13.2482L52.0474 13.8716L52.7031 13.3243C54.0436 12.2051 56.0509 12.0118 57.716 12.8417ZM89.4414 12.8025C91.4255 13.7406 92.4214 15.3824 92.529 17.893C92.6195 20.0107 92.2285 21.229 91.0308 22.5613C89.8815 23.8396 88.813 24.2682 87.0555 24.1564C86.0393 24.0916 85.5364 23.9357 84.7334 23.4367L83.7086 22.7996V25.1603C83.7086 27.7556 83.4849 28.4151 82.6053 28.4151C81.4965 28.4151 81.4959 28.4111 81.4959 20.4697C81.4959 13.9858 81.533 13.1193 81.823 12.8294C82.3432 12.3093 83.1546 12.5227 83.5326 13.2792C83.8289 13.8726 83.8852 13.9024 84.136 13.5992C84.2881 13.4154 84.8652 13.0539 85.4184 12.796C86.7464 12.1769 88.1226 12.1791 89.4414 12.8025ZM101.706 12.6096C102.682 13.0173 104.138 14.4241 104.601 15.407C105.217 16.714 105.344 17.9 104.918 18.3701C104.592 18.7314 104.266 18.7599 100.473 18.7599C97.3313 18.7599 96.382 18.8183 96.3855 19.0114C96.3953 19.573 97.1679 20.9219 97.7696 21.4282C99.1181 22.5629 101.042 22.6196 102.622 21.5714C103.668 20.8774 103.769 20.8609 104.26 21.3055C104.774 21.7703 104.72 22.2177 104.075 22.835C103.19 23.6829 101.701 24.2417 100.317 24.2459C97.7358 24.2541 96.0978 23.3093 95.0233 21.1924C94.4629 20.0883 94.3695 19.6945 94.3695 18.4345C94.3695 15.8115 95.6177 13.6374 97.6547 12.7126C98.6713 12.2511 100.723 12.1988 101.706 12.6096ZM109.195 12.6257C109.608 12.9149 109.63 13.103 109.692 16.9001C109.764 21.2878 109.826 21.5251 111.041 22.1016C112.318 22.7077 113.917 22.1867 114.695 20.9114C115.045 20.3363 115.087 19.8813 115.087 16.6022L115.088 12.9358L115.581 12.6128C116.218 12.1952 116.792 12.3865 117.095 13.1171C117.446 13.9633 117.267 24.1932 116.882 25.2973C116.496 26.4066 115.174 27.6761 113.982 28.082C112.869 28.4612 110.735 28.5167 109.581 28.1963C108.115 27.7892 107.523 26.6873 108.386 25.9712C108.62 25.7768 108.915 25.8066 109.822 26.1156C111.203 26.5855 112.842 26.5652 113.684 26.0677C114.404 25.6425 115.088 24.3366 115.088 23.3884V22.7127L114.633 23.1406C113.928 23.8022 112.694 24.233 111.47 24.2445C109.354 24.2644 108.061 23.1635 107.649 20.9907C107.366 19.5006 107.384 13.6807 107.673 13.0461C107.87 12.6142 108.063 12.477 108.657 12.3465C108.715 12.3336 108.957 12.4593 109.195 12.6257ZM65.0908 12.9714C65.345 13.3343 65.4045 14.0822 65.407 16.9442C65.4102 20.7272 65.4963 21.1319 66.4485 21.8387C67.0986 22.3213 68.4415 22.3943 69.3861 21.9984C70.5518 21.5101 70.7107 20.9233 70.8294 16.6692C70.9211 13.386 70.982 12.8393 71.2769 12.6538C71.5084 12.5082 71.7997 12.503 72.1821 12.6373L72.7459 12.8355L72.8002 16.8731L72.8545 20.911L72.2905 21.991C71.8327 22.8672 71.5241 23.1764 70.6542 23.631C69.7506 24.1029 69.3409 24.1904 68.0463 24.1866C66.1927 24.1813 65.1423 23.7653 64.251 22.684C63.3635 21.6076 63.1913 20.6391 63.1913 16.7255C63.1913 13.7831 63.2416 13.2044 63.5242 12.8922C63.9768 12.3919 64.711 12.4291 65.0908 12.9714ZM99.0966 14.3389C97.8945 14.5921 96.9177 15.4225 96.6759 16.3964L96.5385 16.9496H99.6783C103.12 16.9496 103.137 16.9425 102.526 15.7626C101.98 14.7062 100.422 14.0597 99.0966 14.3389ZM53.8278 14.6177C51.883 15.4647 51.1541 18.4363 52.3632 20.5878C52.9805 21.6861 53.9187 22.232 55.2215 22.2507C56.6433 22.2714 57.5726 21.6792 58.2488 20.3221C59.9516 16.9053 57.0804 13.2008 53.8278 14.6177ZM85.5952 14.6237C84.4826 15.1079 83.5097 16.8498 83.5097 18.3576C83.5097 20.0465 84.7312 21.783 86.1751 22.1465C88.5396 22.7417 90.5539 20.9883 90.5433 18.3444C90.5314 15.3961 88.0711 13.5459 85.5952 14.6237Z" fill="white"/>
</svg>
